# AST/ASF file generated using VICON BodyLanguage
# -----------------------------------------------
:version 1.10
:name VICON
:units
  mass 1.0
  length 0.45
  angle deg
:documentation
   .ast/.asf automatically generated from VICON data using
   VICON BodyBuilder and BodyLanguage model FoxedUp or BRILLIANT.MOD
:root
   order TX TY TZ RX RY RZ
   axis XYZ
   position 0 0 0  
   orientation 0 0 0 
:bonedata
  begin
     id 1 
     name lhipjoint
     direction 0.577973 -0.728611 0.367523 
     length 2.48544 
     axis 0 0 0  XYZ
  end
  begin
     id 2 
     name lfemur
     direction 0.34202 -0.939693 0  
     length 7.1921  
     axis 0 0 20  XYZ
    dof rx ry rz
    limits (-160.0 20.0)
           (-70.0 70.0)
           (-60.0 70.0)
  end
  begin
     id 3 
     name ltibia
     direction 0.34202 -0.939693 0   
     length 7.71059   
     axis 0 0 20   XYZ
    dof rx
    limits (-10.0 170.0)
  end
  begin
     id 4 
     name lfoot
     direction 0.089538 -0.246004 0.965124   
     length 2.19909   
     axis -90 7.62852e-016 20   XYZ
    dof rx rz
    limits (-45.0 90.0)
           (-70.0 20.0)
  end
  begin
     id 5 
     name ltoes
     direction 1.53544e-011 -4.21829e-011 1   
     length 1.10116   
     axis -90 7.62852e-016 20   XYZ
    dof rx
    limits (-90.0 20.0)
  end
  begin
     id 6 
     name rhipjoint
     direction -0.554414 -0.743062 0.374812   
     length 2.4371  
     axis 0 0 0  XYZ 
  end
  begin
     id 7 
     name rfemur
     direction -0.34202 -0.939693 0   
     length 7.47254   
     axis 0 0 -20   XYZ
    dof rx ry rz
    limits (-160.0 20.0)
           (-70.0 70.0)
           (-70.0 60.0)
  end
  begin
     id 8 
     name rtibia
     direction -0.34202 -0.939693 0   
     length 7.65855   
     axis 0 0 -20   XYZ
    dof rx
    limits (-10.0 170.0)
 end
 begin
     id 9 
     name rfoot
     direction -0.133779 -0.367555 0.92033   
     length 2.43006  
     axis -90 -7.62852e-016 -20   XYZ
    dof rx rz
    limits (-45.0 90.0)
           (-20.0 70.0)
  end
  begin
     id 10 
     name rtoes
     direction -1.53563e-011 -4.21889e-011 1   
     length 1.19625   
     axis -90 -7.62852e-016 -20   XYZ
    dof rx
    limits (-90.0 20.0)
  end
  begin
     id 11 
     name lowerback
     direction 0.0249066 0.998043 -0.0573585   
     length 2.08485   
     axis 0 0 0   XYZ
    dof rx ry rz
    limits (-20.0 45.0)
           (-30.0 30.0)
           (-30.0 30.0)
  end
  begin
     id 12 
     name upperback
     direction 0.0237884 0.999673 0.00943178   
     length 2.08515   
     axis 0 0 0   XYZ
    dof rx ry rz
    limits (-20.0 45.0)
           (-30.0 30.0)
           (-30.0 30.0)
  end
  begin
     id 13 
     name thorax
     direction 0.0106671 0.999301 0.0358174   
     length 2.09037   
     axis 0 0 0   XYZ
    dof rx ry rz
    limits (-20.0 45.0)
           (-30.0 30.0)
           (-30.0 30.0)
  end
  begin
     id 14 
     name lowerneck
     direction -0.0580016 0.987052 0.149546   
     length 1.84454   
     axis 0 0 0   XYZ
    dof rx ry rz
    limits (-20.0 45.0)
           (-30.0 30.0)
           (-30.0 30.0)
  end
  begin
     id 15 
     name upperneck
     direction 0.079456 0.981963 -0.171567   
     length 1.88141   
     axis 0 0 0   XYZ
    dof rx ry rz
    limits (-20.0 45.0)
           (-30.0 30.0)
           (-30.0 30.0)
  end
  begin
     id 16
     name head
     direction 0.0262167 0.9967 -0.0768276  
     length 1.89541  
     axis 0 0 0   XYZ
    dof rx ry rz
    limits (-20.0 45.0)
           (-30.0 30.0)
           (-30.0 30.0)
  end
  begin
     id 17 
     name lclavicle
     direction 0.946135 0.322134 -0.0325326  
     length 3.949  
     axis 0 0 0   XYZ
    dof ry rz
    limits (-20.0 10.0)
           (0.0 20.0)
  end
  begin
     id 18 
     name lhumerus
     direction 1 -4.48964e-011 1.94005e-028   
     length 5.10995   
     axis 180 -30 -90   XYZ
    dof rx ry rz
    limits (-60.0 90.0)
           (-90.0 90.0)
           (-90.0 90.0)
  end
  begin
     id 19
     name lradius
     direction 1 -4.48976e-011 2.87852e-027   
     length 3.21207   
     axis 180 -30 -90   XYZ
    dof rx
    limits (-10.0 170.0)
  end
  begin
     id 20
     name lwrist
     direction 1 -4.48963e-011 1.9975e-027   
     length 1.60604   
     axis 2.96054e-016 90 90   XYZ
    dof ry
    limits (-180.0 0.0)
 end
  begin
     id 21 
     name lhand
     direction 1 -4.48919e-011 4.00227e-027   
     length 0.63349   
     axis -2.5488e-015 90 90   XYZ
    dof rx rz
    limits (-90.0 90.0)
           (-45.0 45.0)
  end
  begin
     id 22 
     name lfingers
     direction 1 -4.49037e-011 7.9652e-027   
     length 0.510736   
     axis -5.0975e-015 90 90   XYZ
    dof rx
    limits (0.0 90.0)
  end
  begin
     id 23
     name lthumb
     direction 0.707107 -6.34922e-011 0.707107   
     length 0.733318   
     axis -90 45 -4.48553e-014   XYZ
    dof rx rz
    limits (-45.0 45.0)
           (-45.0 45.0)
  end
  begin
     id 24 
     name rclavicle
     direction -0.940085 0.328911 -0.0897654   
     length 3.93848  
     axis 0 0 0   XYZ 
    dof ry rz
    limits (-10.0 20.0)
           (-20.0 0.0)
  end
  begin
     id 25 
     name rhumerus
     direction -1 -4.48958e-011 3.02044e-027  
     length 5.25109   
     axis 180 30 90   XYZ
    dof rx ry rz
    limits (-90.0 60.0)
           (-90.0 90.0)
           (-90.0 90.0)
  end
  begin
     id 26 
     name rradius
     direction -1 -4.4897e-011 9.78352e-028   
     length 3.28364   
     axis 180 30 90   XYZ
    dof rx
    limits (-10.0 170.0)
  end
  begin
     id 27 
     name rwrist
     direction -1 -4.48943e-011 1.99918e-027   
     length 1.64182   
     axis 2.96054e-016 -90 -90   XYZ
    dof ry
    limits (-180.0 0.0)
  end
  begin
     id 28
     name rhand
     direction -1 -4.49024e-011 3.98478e-027   
     length 0.599745   
     axis -2.5488e-015 -90 -90   XYZ
    dof rx rz
    limits (-90.0 90.0)
           (-45.0 45.0)
  end
  begin
     id 29
     name rfingers
     direction -1 -4.48914e-011 8.00621e-027   
     length 0.48353   
     axis -5.0975e-015 -90 -90   XYZ
    dof rx
    limits (0.0 90.0)
  end
  begin
     id 30
     name rthumb
     direction -0.707107 -6.34992e-011 0.707107   
     length 0.694255   
     axis -90 -45 4.48553e-014   XYZ
    dof rx rz
    limits (-45.0 45.0)
           (-45.0 45.0)
  end
:hierarchy
  begin
    root lhipjoint rhipjoint lowerback
    lhipjoint lfemur
    lfemur ltibia
    ltibia lfoot
    lfoot ltoes
    rhipjoint rfemur
    rfemur rtibia
    rtibia rfoot
    rfoot rtoes
    lowerback upperback
    upperback thorax
    thorax lowerneck lclavicle rclavicle
    lowerneck upperneck
    upperneck head
    lclavicle lhumerus
    lhumerus lradius
    lradius lwrist
    lwrist lhand lthumb
    lhand lfingers
    rclavicle rhumerus
    rhumerus rradius
    rradius rwrist
    rwrist rhand rthumb
    rhand rfingers
  end

#!OML:ASF E:\CV Data\Top Level 1\Subject 1\Session 1\player.ASF
:FULLY-SPECIFIED
:DEGREES
109
root 6.59831 17.4874 -8.44222 10.6206 -16.5957 -1.89947
lowerback 1.28585 -0.0214496 -1.30562
upperback -1.38941 -0.0130474 2.53019
thorax -2.14701 0.0336396 3.33605
lowerneck -11.3726 -10.1855 -14.599
upperneck 15.2745 -13.4894 11.9828
head 8.44502 -6.30159 4.76671
rclavicle -4.21423e-014 -9.54166e-015
rhumerus -27.1296 14.8483 -93.974
rradius 39.4371
rwrist 2.92892
rhand -28.0294 10.5526
rfingers 7.12502
rthumb -1.41432 -19.4225
lclavicle -4.21423e-014 -9.54166e-015
lhumerus -31.5483 -28.0796 105.999
lradius 64.9433
lwrist 36.9125
lhand -17.861 35.1257
lfingers 7.12502
lthumb 8.40445 64.9385
rfemur -21.748 2.05813 18.415
rtibia 36.4305
rfoot -21.9434 -13.5524
rtoes 3.91837
lfemur -18.9537 1.32873 -15.9875
ltibia 30.1645
lfoot -11.9768 15.372
ltoes -7.25747
110
root 6.60036 17.4878 -8.44424 10.6529 -16.6346 -1.89696
lowerback 1.32576 0.000171267 -1.28819
upperback -1.37302 0.0162013 2.54175
thorax -2.15458 0.0480076 3.3373
lowerneck -11.5969 -9.91714 -14.3811
upperneck 15.3353 -13.1056 11.863
head 8.42565 -6.10951 4.74259
rclavicle -5.1684e-015 -1.43125e-014
rhumerus -27.1923 14.3392 -93.7212
rradius 39.088
rwrist 3.05769
rhand -28.1109 10.558
rfingers 7.12502
rthumb -1.49301 -19.4165
lclavicle -5.1684e-015 -1.43125e-014
lhumerus -31.5018 -28.0471 105.964
lradius 64.8798
lwrist 36.852
lhand -17.8128 35.0363
lfingers 7.12502
lthumb 8.45097 64.8472
rfemur -21.8061 2.07014 18.4009
rtibia 36.438
rfoot -21.9292 -13.5293
rtoes 3.91626
lfemur -18.9941 1.34076 -15.9989
ltibia 30.1664
lfoot -11.9717 15.3868
ltoes -7.21933
111
root 6.6024 17.4882 -8.44626 10.6853 -16.6709 -1.89315
lowerback 1.36666 0.0196978 -1.27185
upperback -1.35498 0.0426012 2.55236
thorax -2.16082 0.0609263 3.33826
lowerneck -11.779 -9.65276 -14.1813
upperneck 15.3632 -12.7317 11.7639
head 8.39326 -5.92328 4.7279
rclavicle 9.19379e-015 1.03368e-014
rhumerus -27.2627 13.8266 -93.4637
rradius 38.7361
rwrist 3.17676
rhand -28.1903 10.5624
rfingers 7.12502
rthumb -1.56967 -19.4116
lclavicle 9.19379e-015 1.03368e-014
lhumerus -31.453 -28.0038 105.919
lradius 64.8224
lwrist 36.7995
lhand -17.8018 34.9025
lfingers 7.12502
lthumb 8.46163 64.7129
rfemur -21.864 2.07856 18.3852
rtibia 36.4465
rfoot -21.9192 -13.5016
rtoes 3.9367
lfemur -19.0346 1.35306 -16.0111
ltibia 30.1667
lfoot -11.966 15.3985
ltoes -7.18928
112
root 6.60448 17.4886 -8.4483 10.7143 -16.7041 -1.88499
lowerback 1.41013 0.0392244 -1.25493
upperback -1.33136 0.0688548 2.55732
thorax -2.16272 0.0736099 3.33299
lowerneck -11.9768 -9.40238 -13.982
upperneck 15.3888 -12.3779 11.6741
head 8.36759 -5.74515 4.71224
rclavicle -9.93923e-017 3.61788e-014
rhumerus -27.3353 13.3048 -93.2022
rradius 38.3839
rwrist 3.28504
rhand -28.2614 10.544
rfingers 7.12502
rthumb -1.63837 -19.4294
lclavicle -9.93923e-017 3.61788e-014
lhumerus -31.4001 -27.96 105.861
lradius 64.7764
lwrist 36.7716
lhand -17.8059 34.7831
lfingers 7.12502
lthumb 8.45764 64.5937
rfemur -21.9194 2.08323 18.3653
rtibia 36.456
rfoot -21.909 -13.475
rtoes 3.95296
lfemur -19.0724 1.36634 -16.0278
ltibia 30.165
lfoot -11.9609 15.4047
ltoes -7.16391
113
root 6.60653 17.489 -8.4504 10.7388 -16.7396 -1.87368
lowerback 1.45699 0.057659 -1.23879
upperback -1.30374 0.0935227 2.55855
thorax -2.16228 0.0854164 3.32433
lowerneck -12.1551 -9.1592 -13.7977
upperneck 15.4066 -12.0369 11.5984
head 8.34062 -5.57355 4.70209
rclavicle -2.11706e-014 -8.34896e-015
rhumerus -27.4126 12.7855 -92.9397
rradius 38.0296
rwrist 3.38368
rhand -28.3332 10.5124
rfingers 7.12502
rthumb -1.70771 -19.4605
lclavicle -2.11706e-014 -8.34896e-015
lhumerus -31.3517 -27.9003 105.79
lradius 64.7449
lwrist 36.7647
lhand -17.7983 34.7053
lfingers 7.12502
lthumb 8.46497 64.5156
rfemur -21.9717 2.0865 18.3421
rtibia 36.4666
rfoot -21.8989 -13.446
rtoes 3.96406
lfemur -19.1051 1.38471 -16.0481
ltibia 30.1616
lfoot -11.9581 15.4063
ltoes -7.13583
114
root 6.60861 17.4893 -8.45262 10.7608 -16.772 -1.86129
lowerback 1.50381 0.0747047 -1.21561
upperback -1.27012 0.116312 2.55289
thorax -2.15545 0.0959857 3.30456
lowerneck -12.3555 -8.92843 -13.6068
upperneck 15.4294 -11.7131 11.5231
head 8.3222 -5.40883 4.68732
rclavicle -3.0265e-014 9.14409e-015
rhumerus -27.4878 12.2646 -92.6786
rradius 37.6717
rwrist 3.47198
rhand -28.4011 10.4749
rfingers 7.12502
rthumb -1.77329 -19.4975
lclavicle -3.0265e-014 9.14409e-015
lhumerus -31.3023 -27.8331 105.703
lradius 64.7266
lwrist 36.7871
lhand -17.7723 34.6835
lfingers 7.12502
lthumb 8.49012 64.4928
rfemur -22.0208 2.08845 18.318
rtibia 36.4777
rfoot -21.8901 -13.4178
rtoes 3.98359
lfemur -19.1363 1.40421 -16.0692
ltibia 30.1576
lfoot -11.9547 15.4032
ltoes -7.10792
115
root 6.61066 17.4896 -8.45499 10.7824 -16.8028 -1.84974
lowerback 1.55283 0.0916856 -1.18806
upperback -1.23389 0.139038 2.5436
thorax -2.14712 0.106392 3.27856
lowerneck -12.5534 -8.70942 -13.4196
upperneck 15.4508 -11.4071 11.4521
head 8.30664 -5.25243 4.6718
rclavicle -1.94312e-014 1.31198e-014
rhumerus -27.5643 11.7425 -92.4147
rradius 37.309
rwrist 3.55739
rhand -28.4821 10.439
rfingers 7.12502
rthumb -1.85149 -19.5327
lclavicle -1.94312e-014 1.31198e-014
lhumerus -31.2543 -27.7583 105.603
lradius 64.7195
lwrist 36.8419
lhand -17.7464 34.6956
lfingers 7.12502
lthumb 8.51511 64.5039
rfemur -22.0703 2.0892 18.2961
rtibia 36.4887
rfoot -21.8768 -13.3956
rtoes 3.97596
lfemur -19.1679 1.42366 -16.089
ltibia 30.1541
lfoot -11.9516 15.3976
ltoes -7.07723
116
root 6.61272 17.49 -8.45757 10.8059 -16.8295 -1.841
lowerback 1.60373 0.106396 -1.1552
upperback -1.19833 0.158876 2.53347
thorax -2.1403 0.115302 3.24877
lowerneck -12.722 -8.49907 -13.2447
upperneck 15.4563 -11.1153 11.3883
head 8.28454 -5.10399 4.65924
rclavicle 1.07841e-014 -1.51076e-014
rhumerus -27.6462 11.2254 -92.1482
rradius 36.939
rwrist 3.64372
rhand -28.573 10.4039
rfingers 7.12502
rthumb -1.93927 -19.567
lclavicle 1.07841e-014 -1.51076e-014
lhumerus -31.2119 -27.6639 105.494
lradius 64.7188
lwrist 36.9063
lhand -17.7189 34.6848
lfingers 7.12502
lthumb 8.54164 64.492
rfemur -22.1209 2.08876 18.2786
rtibia 36.499
rfoot -21.8598 -13.3803
rtoes 3.94927
lfemur -19.2032 1.4405 -16.1046
ltibia 30.1526
lfoot -11.9481 15.3895
ltoes -7.04528
117
root 6.61479 17.4903 -8.46035 10.8328 -16.8517 -1.83536
lowerback 1.65617 0.121475 -1.11797
upperback -1.15995 0.179282 2.52222
thorax -2.13143 0.12438 3.21532
lowerneck -12.879 -8.30333 -13.0777
upperneck 15.4483 -10.8445 11.3314
head 8.26028 -4.96586 4.64725
rclavicle -7.25564e-014 -1.55052e-014
rhumerus -27.7278 10.7018 -91.875
rradius 36.5615
rwrist 3.73951
rhand -28.6668 10.36
rfingers 7.12502
rthumb -2.0299 -19.61
lclavicle -7.25564e-014 -1.55052e-014
lhumerus -31.1699 -27.5628 105.377
lradius 64.7239
lwrist 36.9783
lhand -17.7183 34.6375
lfingers 7.12502
lthumb 8.5422 64.4447
rfemur -22.1748 2.08755 18.2657
rtibia 36.5086
rfoot -21.8405 -13.3718
rtoes 3.90812
lfemur -19.2437 1.45242 -16.1158
ltibia 30.1532
lfoot -11.943 15.3813
ltoes -7.01874
